# xmcd CD database file generated by Grip 2.95
# 
# Track frame offsets:
#       150
#       19695
#       30664
#       43436
#       57230
#       69661
#       77590
#       92108
#       119844
#       139496
#       149347
#       159304
#       172647
#       189062
#       210306
# 
# Disc length: 3011 seconds
# 
# Revision: 3
# Processed by: cddbd v1.4b42PL0 Copyright (c) Steve Scherf et al.
# Submitted via: Grip 2.95
# 
DISCID=cc0bc10f
DTITLE=Michael Hakanson-Stacy - Sanctuary Blues
DYEAR=1900
DGENRE=
TTITLE0=Creepin'
TTITLE1=You Drink Too Much
TTITLE2=Blues in the Belfry
TTITLE3=Pizza Blues
TTITLE4=1944 Blues
TTITLE5=Sanctuary Blues
TTITLE6=God's Gonna Cut 'Em Down
TTITLE7=Death Don't Have No Mercy
TTITLE8=Denomination Blues Part II
TTITLE9=Ring Him Up Easy
TTITLE10=Old Time Religion
TTITLE11=Delchytown Blues
TTITLE12=New Pony Blues
TTITLE13=Wiscassett Narrow Line
TTITLE14=Eutychus' Dream
EXTD=
EXTT0=
EXTT1=
EXTT2=
EXTT3=
EXTT4=
EXTT5=
EXTT6=
EXTT7=
EXTT8=
EXTT9=
EXTT10=
EXTT11=
EXTT12=
EXTT13=
EXTT14=
PLAYORDER=
